<svg id="visual" viewBox="0 0 1920 1080" width="1920" height="1080" xmlns="http://www.w3.org/2000/svg" xmlns:xlink="http://www.w3.org/1999/xlink" version="1.1"><path d="M0 239L45.7 257C91.3 275 182.7 311 274.2 329C365.7 347 457.3 347 548.8 363.2C640.3 379.3 731.7 411.7 823 384.7C914.3 357.7 1005.7 271.3 1097 233.5C1188.3 195.7 1279.7 206.3 1371.2 251.3C1462.7 296.3 1554.3 375.7 1645.8 395.5C1737.3 415.3 1828.7 375.7 1874.3 355.8L1920 336L1920 0L1874.3 0C1828.7 0 1737.3 0 1645.8 0C1554.3 0 1462.7 0 1371.2 0C1279.7 0 1188.3 0 1097 0C1005.7 0 914.3 0 823 0C731.7 0 640.3 0 548.8 0C457.3 0 365.7 0 274.2 0C182.7 0 91.3 0 45.7 0L0 0Z" fill="#001220"></path><path d="M0 487L45.7 505C91.3 523 182.7 559 274.2 550C365.7 541 457.3 487 548.8 494.2C640.3 501.3 731.7 569.7 823 560.7C914.3 551.7 1005.7 465.3 1097 415C1188.3 364.7 1279.7 350.3 1371.2 382.7C1462.7 415 1554.3 494 1645.8 515.5C1737.3 537 1828.7 501 1874.3 483L1920 465L1920 334L1874.3 353.8C1828.7 373.7 1737.3 413.3 1645.8 393.5C1554.3 373.7 1462.7 294.3 1371.2 249.3C1279.7 204.3 1188.3 193.7 1097 231.5C1005.7 269.3 914.3 355.7 823 382.7C731.7 409.7 640.3 377.3 548.8 361.2C457.3 345 365.7 345 274.2 327C182.7 309 91.3 273 45.7 255L0 237Z" fill="#23274c"></path><path d="M0 692L45.7 706.5C91.3 721 182.7 750 274.2 723C365.7 696 457.3 613 548.8 631C640.3 649 731.7 768 823 755.5C914.3 743 1005.7 599 1097 528.7C1188.3 458.3 1279.7 461.7 1371.2 504.8C1462.7 548 1554.3 631 1645.8 688.7C1737.3 746.3 1828.7 778.7 1874.3 794.8L1920 811L1920 463L1874.3 481C1828.7 499 1737.3 535 1645.8 513.5C1554.3 492 1462.7 413 1371.2 380.7C1279.7 348.3 1188.3 362.7 1097 413C1005.7 463.3 914.3 549.7 823 558.7C731.7 567.7 640.3 499.3 548.8 492.2C457.3 485 365.7 539 274.2 548C182.7 557 91.3 521 45.7 503L0 485Z" fill="#65326b"></path><path d="M0 973L45.7 980.2C91.3 987.3 182.7 1001.7 274.2 1008.8C365.7 1016 457.3 1016 548.8 1017.8C640.3 1019.7 731.7 1023.3 823 1000C914.3 976.7 1005.7 926.3 1097 912C1188.3 897.7 1279.7 919.3 1371.2 939.2C1462.7 959 1554.3 977 1645.8 991.3C1737.3 1005.7 1828.7 1016.3 1874.3 1021.7L1920 1027L1920 809L1874.3 792.8C1828.7 776.7 1737.3 744.3 1645.8 686.7C1554.3 629 1462.7 546 1371.2 502.8C1279.7 459.7 1188.3 456.3 1097 526.7C1005.7 597 914.3 741 823 753.5C731.7 766 640.3 647 548.8 629C457.3 611 365.7 694 274.2 721C182.7 748 91.3 719 45.7 704.5L0 690Z" fill="#ae346e"></path><path d="M0 1081L45.7 1081C91.3 1081 182.7 1081 274.2 1081C365.7 1081 457.3 1081 548.8 1081C640.3 1081 731.7 1081 823 1081C914.3 1081 1005.7 1081 1097 1081C1188.3 1081 1279.7 1081 1371.2 1081C1462.7 1081 1554.3 1081 1645.8 1081C1737.3 1081 1828.7 1081 1874.3 1081L1920 1081L1920 1025L1874.3 1019.7C1828.7 1014.3 1737.3 1003.7 1645.8 989.3C1554.3 975 1462.7 957 1371.2 937.2C1279.7 917.3 1188.3 895.7 1097 910C1005.7 924.3 914.3 974.7 823 998C731.7 1021.3 640.3 1017.7 548.8 1015.8C457.3 1014 365.7 1014 274.2 1006.8C182.7 999.7 91.3 985.3 45.7 978.2L0 971Z" fill="#e84855"></path></svg>